<?xml version="1.0" standalone="no"?>
<!DOCTYPE svg PUBLIC "-//W3C//DTD SVG 20010904//EN"
 "http://www.w3.org/TR/2001/REC-SVG-20010904/DTD/svg10.dtd">
<svg version="1.0" xmlns="http://www.w3.org/2000/svg"
 width="512.000000pt" height="512.000000pt" viewBox="0 0 512.000000 512.000000"
 preserveAspectRatio="xMidYMid meet">

<g transform="translate(0.000000,512.000000) scale(0.100000,-0.100000)"
fill="#000000" stroke="none">
<path d="M0 2560 l0 -2560 2560 0 2560 0 0 2560 0 2560 -2560 0 -2560 0 0
-2560z m3628 1629 c51 -25 97 -89 107 -149 14 -81 -33 -173 -107 -211 -61 -31
-161 -24 -212 15 -95 72 -112 198 -39 294 54 71 163 93 251 51z m-500 -526 l2
-183 180 0 180 0 0 -380 0 -380 -180 0 -180 0 0 -160 0 -160 180 0 180 0 0
-385 0 -385 -180 0 -180 0 0 -180 0 -180 -570 0 -570 0 0 180 0 180 -180 0
-180 0 0 925 0 925 180 0 180 0 0 185 0 185 568 -2 567 -3 3 -182z"/>
<path d="M2040 2560 l0 -880 520 0 520 0 0 340 0 340 -365 0 -365 0 0 200 0
200 365 0 365 0 0 340 0 340 -520 0 -520 0 0 -880z"/>
</g>
</svg>
